<svg xmlns="http://www.w3.org/2000/svg" version="1.1" xmlns:xlink="http://www.w3.org/1999/xlink" width="512" height="512" x="0" y="0" viewBox="0 0 60 60" style="enable-background:new 0 0 512 512" xml:space="preserve" class=""><g><path fill="#2579f2" d="M52 43v14a2.006 2.006 0 0 1-2 2H10a2.006 2.006 0 0 1-2-2V43l1-1h42z" opacity="1" data-original="#2579f2" class=""></path><path fill="#e8edf3" d="M52 14v29H8V3a2.006 2.006 0 0 1 2-2h29a1.275 1.275 0 0 1 .2.01 4.511 4.511 0 0 1 3.2 1.39l8.2 8.2a4.511 4.511 0 0 1 1.39 3.2 1.275 1.275 0 0 1 .01.2z" opacity="1" data-original="#e8edf3" class=""></path><path fill="#bfcedd" d="M51.99 13.8A2.006 2.006 0 0 0 50 12h-6a3 3 0 0 1-3-3V3a2.006 2.006 0 0 0-1.8-1.99 4.511 4.511 0 0 1 3.2 1.39l8.2 8.2a4.511 4.511 0 0 1 1.39 3.2z" opacity="1" data-original="#bfcedd"></path><path fill="#ffffff" d="M30.5 46a3.5 3.5 0 0 0-3.5 3.5v3a3.5 3.5 0 0 0 7 0v-3a3.5 3.5 0 0 0-3.5-3.5zm1.5 6.5a1.5 1.5 0 0 1-3 0v-3a1.5 1.5 0 0 1 3 0zM42.148 52.02a1 1 0 0 0-1.178.782A1.5 1.5 0 0 1 38 52.5v-3a1.5 1.5 0 0 1 2.97-.3 1 1 0 0 0 1.961-.4 3.5 3.5 0 0 0-6.931.7v3a3.5 3.5 0 0 0 6.931.7 1 1 0 0 0-.783-1.18zM22 46h-3a1 1 0 0 0-1 1v8a1 1 0 0 0 1 1h3a3 3 0 0 0 3-3v-4a3 3 0 0 0-3-3zm1 7a1 1 0 0 1-1 1h-2v-6h2a1 1 0 0 1 1 1z" opacity="1" data-original="#ffffff" class=""></path><g fill="#bfcedd"><path d="M46 19H14a1 1 0 0 1 0-2h32a1 1 0 0 1 0 2zM46 25H25a1 1 0 0 1 0-2h21a1 1 0 0 1 0 2zM21 25h-7a1 1 0 0 1 0-2h7a1 1 0 0 1 0 2zM46 31H14a1 1 0 0 1 0-2h32a1 1 0 0 1 0 2zM33 37H14a1 1 0 0 1 0-2h19a1 1 0 0 1 0 2z" fill="#bfcedd" opacity="1" data-original="#bfcedd"></path></g></g></svg>