<svg xmlns="http://www.w3.org/2000/svg" viewBox="0 0 581.85193 521.10805" xmlns:xlink="http://www.w3.org/1999/xlink" role="img" artist="Katerina Limpitsouni" source="https://undraw.co/">
  <g transform="translate(130, 150)">
    <path d="M465.07349,501.00211H464.85c-85.89439,0-155.77593-69.88153-155.77593-155.77837,0-85.89623,69.88154-155.77776,155.77776-155.77776s155.77838,69.88153,155.77838,155.77776a155.89417,155.89417,0,0,1-48.242,112.69589l31.34048,35.13193-1.60684.68158c-25.977,11.01522-52.29786-4.00031-63.056-11.52091A155.49255,155.49255,0,0,1,465.07349,501.00211Zm-.2217-309.05456c-84.51657,0-153.27619,68.75961-153.27619,153.27619s68.75962,153.2768,153.27619,153.2768A152.94684,152.94684,0,0,0,538.548,479.64592l.68769-.37865.63944.45561c9.76626,6.94894,34.82411,21.80446,59.6395,12.3625L568.89968,457.767l.89106-.83426A153.37,153.37,0,0,0,618.12859,345.225C618.12859,260.70716,549.369,191.94755,464.85179,191.94755Z" transform="translate(-309.07403 -189.44598)" fill="#1D7874"/>
    <path d="M513.096,319.73562c-31.96825-.33285-63.93244-.90439-95.89925-1.33867q-15.98548-.21715-31.97163-.38072c-9.1828-.09561-9.20627-14.37494,0-14.27909,31.96824.33285,63.93244.90439,95.89925,1.33866q15.98549.21717,31.97163.38072c9.1828.09561,9.20627,14.375,0,14.2791Z" transform="translate(-309.07403 -189.44598)" fill="#679289"/>
    <path d="M548.118,353.0535l-129.20273-1.33866-36.74573-.38072c-9.18283-.09514-9.20626-14.37448,0-14.27909l129.20273,1.33866,36.74573.38072c9.18283.09514,9.20627,14.37448,0,14.27909Z" transform="translate(-309.07403 -189.44598)" fill="#679289"/>
    <path d="M548.118,386.37139l-129.20273-1.33867-36.74573-.38072c-9.18283-.09514-9.20626-14.37448,0-14.27909l129.20273,1.33866,36.74573.38072c9.18283.09515,9.20627,14.37448,0,14.2791Z" transform="translate(-309.07403 -189.44598)" fill="#679289"/>
    <circle cx="311" cy="321.55613" r="9" fill="#1D7874"/>
  </g>
</svg>