<svg xmlns="http://www.w3.org/2000/svg" version="1.1" xmlns:xlink="http://www.w3.org/1999/xlink" width="512" height="512" x="0" y="0" viewBox="0 0 68 68" style="enable-background:new 0 0 512 512" xml:space="preserve" class=""><g><path fill="#e9edf4" d="M60.775 4.995v58.01a3 3 0 0 1-3 3h-47.55a3 3 0 0 1-3-3v-48.97h9.05a3 3 0 0 0 3-3v-9.04h38.5a3 3 0 0 1 3 3z" opacity="1" data-original="#e9edf4" class=""></path><path fill="#d2dbea" d="M7.225 14.035h9.05a3 3 0 0 0 3-3v-9.04z" opacity="1" data-original="#d2dbea"></path><path fill="#f62d2d" d="M64 39.188v13.92a3 3 0 0 1-3 3H7a3 3 0 0 1-3-3v-13.92a3 3 0 0 1 3-3h54a3 3 0 0 1 3 3z" opacity="1" data-original="#f14f4a" class=""></path><path fill="#d2dbea" d="M52.533 22.497c0 .718-.572 1.29-1.29 1.29H16.757a1.29 1.29 0 1 1 0-2.58h34.486c.718 0 1.29.572 1.29 1.29zM52.533 29.107c0 .718-.572 1.29-1.29 1.29H16.757a1.29 1.29 0 1 1 0-2.58h34.486c.718 0 1.29.573 1.29 1.29z" opacity="1" data-original="#d2dbea"></path><g fill="#fff"><path d="M21.278 50.907a.61.61 0 0 1-.182-.45v-8.599c0-.177.06-.33.182-.456a.598.598 0 0 1 .45-.19h3.203c.89 0 1.616.15 2.177.45.563.3.965.684 1.21 1.152.242.468.365.974.365 1.517 0 .543-.123 1.05-.366 1.518-.244.468-.646.852-1.209 1.152-.561.3-1.288.45-2.177.45h-2.557v3.006a.6.6 0 0 1-.19.45c-.126.121-.279.182-.457.182s-.328-.06-.449-.182zm3.527-4.665c.955 0 1.627-.183 2.015-.548.389-.365.583-.82.583-1.363s-.194-.998-.583-1.363c-.388-.365-1.06-.548-2.015-.548h-2.431v3.822h2.43z" fill="#ffffff" opacity="1" data-original="#ffffff" class=""></path><path d="M21.727 51.34a.865.865 0 0 1-.625-.257.853.853 0 0 1-.256-.626v-8.599c0-.244.085-.456.253-.63a.851.851 0 0 1 .628-.266h3.204c.927 0 1.699.161 2.295.479.604.322 1.045.745 1.313 1.257.26.503.394 1.052.394 1.633s-.133 1.13-.394 1.633c-.267.512-.709.935-1.313 1.258-.595.317-1.367.478-2.295.478h-2.307v2.757a.855.855 0 0 1-.266.63.885.885 0 0 1-.63.252zm0-9.878a.348.348 0 0 0-.268.113.386.386 0 0 0-.113.283v8.599c0 .112.034.199.109.272v.001c.15.15.397.15.557-.004a.352.352 0 0 0 .112-.27V47.2h2.807c.845 0 1.538-.141 2.06-.42.514-.274.885-.626 1.105-1.047.223-.43.337-.902.337-1.402 0-.5-.114-.971-.337-1.402-.22-.42-.592-.773-1.105-1.047-.523-.279-1.216-.42-2.06-.42h-3.204zm3.078 5.03h-2.681V42.17h2.68c1.03 0 1.747.201 2.187.616.44.413.662.933.662 1.545s-.222 1.132-.662 1.545c-.44.415-1.156.616-2.186.616zm-2.181-.5h2.18c.885 0 1.506-.162 1.845-.48.34-.32.504-.705.504-1.181s-.165-.862-.504-1.18c-.339-.32-.96-.48-1.844-.48h-2.181zM30.72 50.836a.61.61 0 0 1-.183-.45v-8.528c0-.177.06-.33.183-.456a.598.598 0 0 1 .449-.19h2.824c1.067 0 1.974.237 2.719.71a4.574 4.574 0 0 1 1.679 1.833c.374.75.561 1.536.561 2.36s-.187 1.611-.561 2.361a4.574 4.574 0 0 1-1.68 1.833c-.744.474-1.65.71-2.718.71H31.17a.61.61 0 0 1-.45-.183zm3.119-1.011c.767 0 1.441-.157 2.022-.471a3.349 3.349 0 0 0 1.349-1.307c.318-.557.478-1.2.478-1.931s-.16-1.375-.478-1.932a3.355 3.355 0 0 0-1.349-1.307c-.58-.314-1.255-.47-2.022-.47h-2.024v7.418h2.024z" fill="#ffffff" opacity="1" data-original="#ffffff" class=""></path><path d="M33.993 51.269H31.17a.865.865 0 0 1-.626-.256.853.853 0 0 1-.256-.626v-8.529c0-.244.085-.456.253-.63a.851.851 0 0 1 .629-.266h2.824c1.111 0 2.07.252 2.853.749a4.838 4.838 0 0 1 1.768 1.932 5.497 5.497 0 0 1 0 4.945 4.838 4.838 0 0 1-1.768 1.932c-.783.497-1.742.749-2.853.749zm-2.824-9.807a.348.348 0 0 0-.269.113.386.386 0 0 0-.113.283v8.529c0 .111.034.198.11.272v.001a.362.362 0 0 0 .272.109h2.824c1.015 0 1.884-.226 2.585-.67a4.346 4.346 0 0 0 1.589-1.735 4.99 4.99 0 0 0 0-4.497 4.346 4.346 0 0 0-1.589-1.734c-.701-.445-1.57-.67-2.585-.67H31.17zm2.67 8.613h-2.274v-7.919h2.274c.804 0 1.525.169 2.141.5.62.336 1.107.808 1.447 1.403.34.595.511 1.287.511 2.057s-.171 1.462-.511 2.055a3.611 3.611 0 0 1-1.447 1.403c-.615.332-1.336.5-2.141.5zm-1.774-.5h1.774c.721 0 1.362-.149 1.903-.44.536-.29.957-.698 1.251-1.212.295-.517.445-1.125.445-1.807s-.15-1.29-.445-1.808a3.132 3.132 0 0 0-1.25-1.211c-.543-.292-1.183-.44-1.904-.44h-1.774zM41.271 50.907a.61.61 0 0 1-.182-.45v-8.599c0-.177.06-.33.182-.456a.598.598 0 0 1 .45-.19h5.465c.168 0 .311.059.428.176.117.117.176.26.176.428s-.059.31-.176.422-.26.168-.428.168h-4.819v3.105h4.327c.17 0 .312.06.429.176.117.117.176.26.176.429 0 .168-.059.309-.176.421s-.26.168-.429.168h-4.327v3.752a.6.6 0 0 1-.19.45c-.126.121-.279.182-.456.182s-.328-.06-.45-.182z" fill="#ffffff" opacity="1" data-original="#ffffff" class=""></path><path d="M41.72 51.34a.865.865 0 0 1-.625-.257.853.853 0 0 1-.256-.626v-8.599c0-.244.085-.456.253-.63a.851.851 0 0 1 .629-.266h5.465a.83.83 0 0 1 .605.248.84.84 0 0 1 .249.606.842.842 0 0 1-.854.84h-4.569v2.605h4.077a.83.83 0 0 1 .606.249.83.83 0 0 1 .249.606.816.816 0 0 1-.253.602.842.842 0 0 1-.602.237h-4.077v3.502a.855.855 0 0 1-.265.63.885.885 0 0 1-.631.252zm0-9.878a.348.348 0 0 0-.268.113.386.386 0 0 0-.113.283v8.599c0 .112.034.199.11.272v.001c.15.15.396.15.556-.004a.352.352 0 0 0 .112-.27v-4h4.577a.346.346 0 0 0 .256-.1.312.312 0 0 0 .099-.24c0-.102-.032-.182-.103-.252s-.15-.103-.252-.103h-4.577v-3.605h5.07a.345.345 0 0 0 .254-.099.312.312 0 0 0 .099-.24.334.334 0 0 0-.103-.253.336.336 0 0 0-.25-.102H41.72z" fill="#ffffff" opacity="1" data-original="#ffffff" class=""></path></g></g></svg>